<?xml version="1.0" encoding="UTF-8" standalone="no"?>
<!-- Created with Inkscape (http://www.inkscape.org/) -->

<svg
   width="74.414322mm"
   height="65.181557mm"
   viewBox="0 0 74.414322 65.181557"
   version="1.1"
   id="svg1"
   xml:space="preserve"
   inkscape:version="1.3.2 (091e20e, 2023-11-25, custom)"
   sodipodi:docname="Nigeriadraw.svg"
   xmlns:inkscape="http://www.inkscape.org/namespaces/inkscape"
   xmlns:sodipodi="http://sodipodi.sourceforge.net/DTD/sodipodi-0.dtd"
   xmlns="http://www.w3.org/2000/svg"
   xmlns:svg="http://www.w3.org/2000/svg"><sodipodi:namedview
     id="namedview1"
     pagecolor="#ffffff"
     bordercolor="#000000"
     borderopacity="0.25"
     inkscape:showpageshadow="2"
     inkscape:pageopacity="0.0"
     inkscape:pagecheckerboard="0"
     inkscape:deskcolor="#d1d1d1"
     inkscape:document-units="mm"
     inkscape:zoom="0.36569515"
     inkscape:cx="-1345.3829"
     inkscape:cy="17138.592"
     inkscape:window-width="1920"
     inkscape:window-height="1017"
     inkscape:window-x="-8"
     inkscape:window-y="-8"
     inkscape:window-maximized="1"
     inkscape:current-layer="layer1"
     showguides="false" /><defs
     id="defs1"><linearGradient
       id="swatch39"
       inkscape:swatch="solid"><stop
         style="stop-color:#000000;stop-opacity:1;"
         offset="0"
         id="stop39" /></linearGradient></defs><g
     inkscape:label="Layer 1"
     inkscape:groupmode="layer"
     id="layer1"
     transform="translate(403.97498,-5626.575)"><g
       id="g344"><g
         id="g162"
         transform="translate(-3.5191142,282.2469)"><path
           id="path161"
           style="color:#000000;fill:#d32727;fill-opacity:1;stroke-linejoin:round;-inkscape-stroke:none"
           d="m -363.24949,5344.328 a 2.7516551,2.7516551 0 0 1 2.3828,1.3751 l 34.45681,59.6796 a 2.7516551,2.7516551 0 0 1 -2.3828,4.1269 h -68.91208 a 2.7516551,2.7516551 0 0 1 -2.3828,-4.1269 l 34.45527,-59.6796 a 2.7516551,2.7516551 0 0 1 2.3828,-1.3751 z" /><path
           sodipodi:nodetypes="cccc"
           inkscape:connector-curvature="0"
           id="path162"
           d="m -334.87705,5403.2492 -28.37177,-49.1413 -28.37177,49.1413 z"
           style="fill:#ffc500;fill-opacity:1;stroke:none;stroke-width:11.9311;stroke-linecap:butt;stroke-linejoin:round;stroke-miterlimit:4;stroke-dasharray:none;stroke-dashoffset:0;stroke-opacity:1" /></g><path
         id="path158"
         style="fill:#000000;fill-opacity:1;stroke:none;stroke-width:0.636439;stroke-dasharray:none;stroke-opacity:1"
         d="m -371.53675,5656.5197 c -1.24558,2e-4 -2.25519,1.01 -2.25508,2.2557 -1.1e-4,1.2456 1.0095,2.2554 2.25508,2.2556 1.2458,1e-4 2.25573,-1.0098 2.25562,-2.2556 1.1e-4,-1.2459 -1.00982,-2.2558 -2.25562,-2.2557 z m 12.95656,5.0879 c -1.10536,-1e-4 -2.00146,0.896 -2.00129,2.0014 2.5e-4,1.1051 0.89621,2.0007 2.00129,2.0006 1.10486,-2e-4 2.0005,-0.8958 2.00074,-2.0006 1.7e-4,-1.1052 -0.89558,-2.0012 -2.00074,-2.0014 z m -11.40531,0.3426 c -1.62356,-0.012 -3.45537,0.4129 -4.21361,1.7261 l -1.57591,2.7293 -5.88546,1.8494 1.05134,1.2888 5.05337,-0.6781 1.52659,-1.594 -2.98466,7.292 h 1.46793 l -3.27408,8.7632 2.9589,-0.7926 3.16172,-7.9706 h 3.23407 l 3.98284,5.1213 2.68643,0.4068 -4.16534,-5.5281 h 0.76686 l -1.45862,-5.4607 0.58543,-2.1838 1.38187,0.963 -0.0339,4.7141 4.23938,1.3908 1.35666,-2.3401 0.37328,1.1867 -2.74238,10.235 3.15185,-1.8192 1.96456,-5.1258 0.54541,2.0347 6.7285,3.8847 -0.25323,-2.9688 -4.36107,-2.5176 v -5.9276 l 1.47835,0.3733 0.068,4.1039 h 0.98339 l 0.78,-5.1213 -3.49334,-2.442 c 0,0 -1.22086,-0.78 -3.73068,-0.78 -2.50984,0 -2.74733,2.0347 -2.74733,2.0347 l -0.65722,2.7073 -1.75736,-0.4709 0.61667,-5.289 -4.00203,-3.188 c -0.40754,-0.3247 -1.5443,-0.5977 -2.80706,-0.6069 z"
         sodipodi:nodetypes="sssssssssssscccccccccccccccccccccccccccccccccccsccccss" /></g></g></svg>
