<?xml version="1.0" encoding="UTF-8" standalone="no"?>
<!-- Created with Inkscape (http://www.inkscape.org/) -->

<svg
   width="60.751846mm"
   height="60.752365mm"
   viewBox="0 0 60.751846 60.752365"
   version="1.1"
   id="svg1"
   xml:space="preserve"
   inkscape:version="1.3.2 (091e20e, 2023-11-25, custom)"
   sodipodi:docname="Nigeriadraw.svg"
   xmlns:inkscape="http://www.inkscape.org/namespaces/inkscape"
   xmlns:sodipodi="http://sodipodi.sourceforge.net/DTD/sodipodi-0.dtd"
   xmlns="http://www.w3.org/2000/svg"
   xmlns:svg="http://www.w3.org/2000/svg"><sodipodi:namedview
     id="namedview1"
     pagecolor="#ffffff"
     bordercolor="#000000"
     borderopacity="0.25"
     inkscape:showpageshadow="2"
     inkscape:pageopacity="0.0"
     inkscape:pagecheckerboard="0"
     inkscape:deskcolor="#d1d1d1"
     inkscape:document-units="mm"
     inkscape:zoom="0.36569515"
     inkscape:cx="-1345.3829"
     inkscape:cy="17138.592"
     inkscape:window-width="1920"
     inkscape:window-height="1017"
     inkscape:window-x="-8"
     inkscape:window-y="-8"
     inkscape:window-maximized="1"
     inkscape:current-layer="layer1"
     showguides="false" /><defs
     id="defs1"><linearGradient
       id="swatch39"
       inkscape:swatch="solid"><stop
         style="stop-color:#000000;stop-opacity:1;"
         offset="0"
         id="stop39" /></linearGradient></defs><g
     inkscape:label="Layer 1"
     inkscape:groupmode="layer"
     id="layer1"
     transform="translate(565.78303,-240.92793)"><g
       id="g287"><circle
         style="fill:#ffc500;fill-opacity:1;stroke-width:0.206752"
         id="circle4"
         cx="-535.40717"
         cy="271.30414"
         r="26.572258" /><path
         id="path4"
         style="fill:#d32727;fill-opacity:1;stroke-width:0.236348"
         d="m -535.40711,240.92793 a 30.375999,30.375999 0 0 0 -30.37593,30.37644 30.375999,30.375999 0 0 0 30.37593,30.37592 30.375999,30.375999 0 0 0 30.37592,-30.37592 30.375999,30.375999 0 0 0 -30.37592,-30.37644 z m 0,6.87348 a 23.502674,23.502674 0 0 1 23.50244,23.50296 23.502674,23.502674 0 0 1 -23.50244,23.50244 23.502674,23.502674 0 0 1 -23.50296,-23.50244 23.502674,23.502674 0 0 1 23.50296,-23.50296 z" /></g></g></svg>
