<?xml version="1.0" encoding="UTF-8" standalone="no"?>
<!-- Created with Inkscape (http://www.inkscape.org/) -->

<svg
   width="60.752171mm"
   height="60.752106mm"
   viewBox="0 0 60.752171 60.752106"
   version="1.1"
   id="svg1"
   xml:space="preserve"
   inkscape:version="1.3.2 (091e20e, 2023-11-25, custom)"
   sodipodi:docname="Nigeriadraw.svg"
   xmlns:inkscape="http://www.inkscape.org/namespaces/inkscape"
   xmlns:sodipodi="http://sodipodi.sourceforge.net/DTD/sodipodi-0.dtd"
   xmlns="http://www.w3.org/2000/svg"
   xmlns:svg="http://www.w3.org/2000/svg"><sodipodi:namedview
     id="namedview1"
     pagecolor="#ffffff"
     bordercolor="#000000"
     borderopacity="0.25"
     inkscape:showpageshadow="2"
     inkscape:pageopacity="0.0"
     inkscape:pagecheckerboard="0"
     inkscape:deskcolor="#d1d1d1"
     inkscape:document-units="mm"
     inkscape:zoom="0.36569515"
     inkscape:cx="-1345.3829"
     inkscape:cy="17138.592"
     inkscape:window-width="1920"
     inkscape:window-height="1017"
     inkscape:window-x="-8"
     inkscape:window-y="-8"
     inkscape:window-maximized="1"
     inkscape:current-layer="layer1"
     showguides="false" /><defs
     id="defs1"><linearGradient
       id="swatch39"
       inkscape:swatch="solid"><stop
         style="stop-color:#000000;stop-opacity:1;"
         offset="0"
         id="stop39" /></linearGradient></defs><g
     inkscape:label="Layer 1"
     inkscape:groupmode="layer"
     id="layer1"
     transform="translate(474.6038,-3701.6044)"><g
       id="g323"><path
         id="path130"
         style="fill:#0046a7;fill-opacity:1;stroke-width:0.236348"
         d="m -422.74849,3753.4596 c -11.86265,11.8626 -31.09587,11.8625 -42.95837,-3e-4 -11.86256,-11.8626 -11.86265,-31.0956 -8e-5,-42.9582 11.86257,-11.8625 31.09553,-11.8624 42.95809,2e-4 11.86278,11.8625 11.86298,31.0957 3.6e-4,42.9583 z"
         sodipodi:nodetypes="sssss" /><path
         id="path8-0"
         style="color:#000000;fill:#ffffff;stroke-width:0.999999;stroke-linejoin:round;-inkscape-stroke:none"
         d="m -454.04737,3717.8319 -0.38599,1.8577 h 7.80437 l -3.21758,-1.8577 z m 18.74027,0.7002 a 0.32993902,0.32993902 0 0 0 -0.3267,0.2849 c 0,0 -0.21842,1.584 0.33696,4.3073 0.18513,0.9078 0.45864,1.9487 0.85086,3.1039 0.18917,-0.1204 0.38156,-0.2364 0.57808,-0.3455 -0.35894,-1.0753 -0.60959,-2.0435 -0.78222,-2.89 -0.46597,-2.2848 -0.37598,-3.4663 -0.3423,-3.8 h 3.36599 c 0.31925,0 0.52065,0.1593 0.68238,0.406 0.16173,0.2467 0.24247,0.5823 0.24247,0.7662 0,0.2185 -0.0528,0.5919 -0.19567,0.8642 -0.14293,0.2722 -0.31748,0.4466 -0.7158,0.4466 v 0.6601 c 0.63581,0 1.08154,-0.3829 1.30057,-0.8001 0.21903,-0.4172 0.271,-0.8654 0.271,-1.1708 0,-0.3402 -0.10529,-0.7548 -0.35033,-1.1286 -0.24505,-0.3738 -0.67137,-0.7042 -1.23462,-0.7042 z m -18.34359,2.0199 -2.25217,4.8877 c 0.20675,0.078 0.40997,0.1629 0.61063,0.2528 l 2.36894,-5.1405 z m 1.49803,0.1316 a 0.32993902,0.32993902 0 0 0 -0.29997,0.468 l 5.44701,11.8624 c 0.15294,-0.025 0.30968,-0.038 0.46933,-0.038 0.0821,0 0.16333,0 0.24381,0.011 l -5.34628,-11.6433 h 15.19555 c -0.0242,-0.235 -0.0418,-0.4533 -0.0553,-0.6601 z m 16.46671,4.4686 -9.14282,8.3758 c 0.17998,0.1294 0.34501,0.2787 0.49162,0.4444 l 8.86247,-8.1191 c -0.075,-0.2387 -0.14611,-0.4728 -0.21127,-0.7011 z m -24.06739,0.4484 c -5.57717,0 -10.11759,4.5405 -10.11759,10.1176 0,5.5772 4.54042,10.1158 10.11759,10.1158 5.57719,0 10.11582,-4.5386 10.11582,-10.1158 0,-5.5771 -4.53863,-10.1176 -10.11582,-10.1176 z m 31.05165,0 c -5.57717,0 -10.1158,4.5405 -10.1158,10.1176 0,5.5772 4.53863,10.1158 10.1158,10.1158 5.57718,0 10.11715,-4.5386 10.11715,-10.1158 0,-5.5771 -4.53997,-10.1176 -10.11715,-10.1176 z m -31.05165,1.7249 c 4.64493,0 8.39047,3.7477 8.39047,8.3927 0,4.6449 -3.74554,8.391 -8.39047,8.391 -4.64491,0 -8.3927,-3.7461 -8.3927,-8.391 0,-4.645 3.74779,-8.3927 8.3927,-8.3927 z m 31.05165,0 c 4.64491,0 8.39225,3.7477 8.39225,8.3927 0,4.6449 -3.74734,8.391 -8.39225,8.391 -4.64491,0 -8.39092,-3.7461 -8.39092,-8.391 0,-4.645 3.74601,-8.3927 8.39092,-8.3927 z m -28.64704,1.252 -2.13941,4.6429 c 0.22437,0.034 0.44014,0.096 0.64361,0.1819 l 2.11399,-4.5881 c -0.20155,-0.088 -0.40773,-0.1666 -0.61819,-0.2367 z m 24.76982,0.5295 c -0.18972,0.1184 -0.37452,0.2441 -0.55268,0.378 0.71124,1.523 1.61676,3.1805 2.76875,4.9545 0.18686,0.3236 0.43058,0.5956 0.69308,0.8254 0.0671,-0.2266 0.17083,-0.4381 0.3053,-0.6271 -0.16645,-0.1578 -0.31486,-0.3336 -0.42743,-0.5286 a 0.32993902,0.32993902 0 0 0 -0.009,-0.016 c -1.16599,-1.7938 -2.0719,-3.4613 -2.77855,-4.9869 z m -20.08364,4.0631 -4.99685,1.195 c 0.12951,0.1857 0.23684,0.3877 0.31735,0.6025 l 4.87338,-1.1655 c -0.0556,-0.2147 -0.1204,-0.4254 -0.19388,-0.632 z m 6.12671,0.4417 a 2.3010928,2.3010928 0 0 0 -2.3012,2.3008 2.3010928,2.3010928 0 0 0 2.3012,2.3011 2.3010928,2.3010928 0 0 0 2.30119,-2.3011 2.3010928,2.3010928 0 0 0 -2.30119,-2.3008 z m -13.3579,0.4412 a 1.8598403,1.8598403 0 0 0 -1.85994,1.8596 1.8598403,1.8598403 0 0 0 1.85994,1.8599 1.8598403,1.8598403 0 0 0 1.85995,-1.8599 1.8598403,1.8598403 0 0 0 -1.85995,-1.8596 z m 32.25463,0.5478 a 1.2548116,1.2548116 0 0 0 -1.25512,1.2547 1.2548116,1.2548116 0 0 0 1.25512,1.2546 1.2548116,1.2548116 0 0 0 1.25467,-1.2546 1.2548116,1.2548116 0 0 0 -1.25467,-1.2547 z m -29.57815,0.8179 c 0.0299,0.1603 0.0464,0.325 0.0464,0.4934 0,0.072 -0.003,0.1426 -0.009,0.2131 l 4.70713,1.5265 c 0.0556,-0.2127 0.10092,-0.4296 0.13817,-0.6494 z" /></g></g></svg>
