<?xml version="1.0" encoding="UTF-8" standalone="no"?>
<!-- Created with Inkscape (http://www.inkscape.org/) -->

<svg
   width="74.414322mm"
   height="65.181557mm"
   viewBox="0 0 74.414322 65.181557"
   version="1.1"
   id="svg1"
   xml:space="preserve"
   inkscape:version="1.3.2 (091e20e, 2023-11-25, custom)"
   sodipodi:docname="Nigeriadraw.svg"
   xmlns:inkscape="http://www.inkscape.org/namespaces/inkscape"
   xmlns:sodipodi="http://sodipodi.sourceforge.net/DTD/sodipodi-0.dtd"
   xmlns="http://www.w3.org/2000/svg"
   xmlns:svg="http://www.w3.org/2000/svg"><sodipodi:namedview
     id="namedview1"
     pagecolor="#ffffff"
     bordercolor="#000000"
     borderopacity="0.25"
     inkscape:showpageshadow="2"
     inkscape:pageopacity="0.0"
     inkscape:pagecheckerboard="0"
     inkscape:deskcolor="#d1d1d1"
     inkscape:document-units="mm"
     inkscape:zoom="0.36569515"
     inkscape:cx="-1345.3829"
     inkscape:cy="17138.592"
     inkscape:window-width="1920"
     inkscape:window-height="1017"
     inkscape:window-x="-8"
     inkscape:window-y="-8"
     inkscape:window-maximized="1"
     inkscape:current-layer="layer1"
     showguides="false" /><defs
     id="defs1"><linearGradient
       id="swatch39"
       inkscape:swatch="solid"><stop
         style="stop-color:#000000;stop-opacity:1;"
         offset="0"
         id="stop39" /></linearGradient></defs><g
     inkscape:label="Layer 1"
     inkscape:groupmode="layer"
     id="layer1"
     transform="translate(379.47416,-5911.0106)"><g
       id="g347"><g
         id="g179"
         transform="translate(20.981729,566.68285)"><path
           id="path178"
           style="color:#000000;fill:#d32727;fill-opacity:1;stroke-linejoin:round;-inkscape-stroke:none"
           d="m -363.24949,5344.328 a 2.7516551,2.7516551 0 0 1 2.3828,1.3751 l 34.45681,59.6796 a 2.7516551,2.7516551 0 0 1 -2.3828,4.1269 h -68.91208 a 2.7516551,2.7516551 0 0 1 -2.3828,-4.1269 l 34.45527,-59.6796 a 2.7516551,2.7516551 0 0 1 2.3828,-1.3751 z" /><path
           sodipodi:nodetypes="cccc"
           inkscape:connector-curvature="0"
           id="path179"
           d="m -334.87705,5403.2492 -28.37177,-49.1413 -28.37177,49.1413 z"
           style="fill:#ffc500;fill-opacity:1;stroke:none;stroke-width:11.9311;stroke-linecap:butt;stroke-linejoin:round;stroke-miterlimit:4;stroke-dasharray:none;stroke-dashoffset:0;stroke-opacity:1" /></g><path
         id="path173"
         style="fill:#000000;fill-opacity:1;stroke:none;stroke-width:1.19168;stroke-dasharray:none;stroke-opacity:1"
         d="m -337.77123,5935.2074 c -1.16034,2e-4 -2.10094,0.9408 -2.10117,2.1012 -10e-5,1.1605 0.9406,2.1016 2.10117,2.1018 1.16082,1e-4 2.10189,-0.9409 2.1018,-2.1018 -2.2e-4,-1.1606 -0.94121,-2.1013 -2.1018,-2.1012 z m -7.25804,3.2084 c -0.23304,0 -0.37547,0.013 -0.3775,0.013 h -0.005 l -4.0638,0.1977 -3.42333,7.6133 1.33325,0.7871 0.55608,-1.0255 2.51378,2.1382 -8.39978,16.9646 1.56665,2.693 6.90334,-12.6939 3.8544,4.573 v 5.2721 l 2.99534,1.7292 v -7.8923 l -3.8076,-6.5961 0.60597,-0.8868 2.36351,2.0107 v 0.9706 l 2.1369,0.8468 4.89699,4.1659 -0.71866,0.7187 1.63131,1.5432 -6.6447,6.25 h 22.9559 l -7.49884,-14.5383 -6.56032,6.1706 -1.70089,-1.608 -0.6189,0.6189 -5.07127,-4.3138 v -11.6009 c 0,-1.2754 -0.81755,-2.7178 -2.16952,-3.4983 -0.70171,-0.4052 -1.60036,-0.5418 -2.33212,-0.5955 -0.36457,-0.027 -0.68823,-0.029 -0.92126,-0.027 z m -3.76635,3.5041 h 3.37961 l -2.5347,5.1187 -2.47806,-2.108 z m 6.38174,5.9235 v 3.9055 l -1.68797,-1.4355 z" /></g></g></svg>
