<?xml version="1.0" encoding="UTF-8" standalone="no"?>
<!-- Created with Inkscape (http://www.inkscape.org/) -->

<svg
   width="74.414322mm"
   height="65.181557mm"
   viewBox="0 0 74.414322 65.181557"
   version="1.1"
   id="svg1"
   xml:space="preserve"
   inkscape:version="1.3.2 (091e20e, 2023-11-25, custom)"
   sodipodi:docname="Nigeriadraw.svg"
   xmlns:inkscape="http://www.inkscape.org/namespaces/inkscape"
   xmlns:sodipodi="http://sodipodi.sourceforge.net/DTD/sodipodi-0.dtd"
   xmlns="http://www.w3.org/2000/svg"
   xmlns:svg="http://www.w3.org/2000/svg"><sodipodi:namedview
     id="namedview1"
     pagecolor="#ffffff"
     bordercolor="#000000"
     borderopacity="0.25"
     inkscape:showpageshadow="2"
     inkscape:pageopacity="0.0"
     inkscape:pagecheckerboard="0"
     inkscape:deskcolor="#d1d1d1"
     inkscape:document-units="mm"
     inkscape:zoom="0.36569515"
     inkscape:cx="-1345.3829"
     inkscape:cy="17138.592"
     inkscape:window-width="1920"
     inkscape:window-height="1017"
     inkscape:window-x="-8"
     inkscape:window-y="-8"
     inkscape:window-maximized="1"
     inkscape:current-layer="layer1"
     showguides="false" /><defs
     id="defs1"><linearGradient
       id="swatch39"
       inkscape:swatch="solid"><stop
         style="stop-color:#000000;stop-opacity:1;"
         offset="0"
         id="stop39" /></linearGradient></defs><g
     inkscape:label="Layer 1"
     inkscape:groupmode="layer"
     id="layer1"
     transform="translate(399.73237,-5463.7069)"><g
       id="g342"><g
         id="g151"
         transform="translate(0.72350791,119.37881)"><path
           id="path150"
           style="color:#000000;fill:#d32727;fill-opacity:1;stroke-linejoin:round;-inkscape-stroke:none"
           d="m -363.24949,5344.328 a 2.7516551,2.7516551 0 0 1 2.3828,1.3751 l 34.45681,59.6796 a 2.7516551,2.7516551 0 0 1 -2.3828,4.1269 h -68.91208 a 2.7516551,2.7516551 0 0 1 -2.3828,-4.1269 l 34.45527,-59.6796 a 2.7516551,2.7516551 0 0 1 2.3828,-1.3751 z" /><path
           sodipodi:nodetypes="cccc"
           inkscape:connector-curvature="0"
           id="path151"
           d="m -334.87705,5403.2492 -28.37177,-49.1413 -28.37177,49.1413 z"
           style="fill:#ffc500;fill-opacity:1;stroke:none;stroke-width:11.9311;stroke-linecap:butt;stroke-linejoin:round;stroke-miterlimit:4;stroke-dasharray:none;stroke-dashoffset:0;stroke-opacity:1" /></g><path
         id="path152"
         style="fill:#000000;fill-opacity:1;stroke:none;stroke-width:0.652773;stroke-dasharray:none;stroke-opacity:1"
         d="m -368.44537,5490.6111 -16.7928,29.0862 h 28.30472 l -2.66546,-4.8092 -4.13959,-1.8091 -0.20915,-2.2607 -0.80003,-4.0357 -1.94808,-2.7132 -0.41716,-6.0534 -1.07832,-3.3389 z m 4.41564,5.3866 a 1.5127895,1.5127895 0 0 0 -1.51293,1.5129 1.5127895,1.5127895 0 0 0 1.51293,1.513 1.5127895,1.5127895 0 0 0 1.51236,-1.513 1.5127895,1.5127895 0 0 0 -1.51236,-1.5129 z m 2.92632,6.7932 -1.04683,1.8132 1.04683,1.8131 h 2.09314 l 1.04684,-1.8131 -1.04684,-1.8132 z m 7.38021,0.8816 a 1.5127895,1.5127895 0 0 0 -1.51292,1.5129 1.5127895,1.5127895 0 0 0 1.51292,1.5124 1.5127895,1.5127895 0 0 0 1.51236,-1.5124 1.5127895,1.5127895 0 0 0 -1.51236,-1.5129 z m -3.40534,4.5095 -1.32121,2.2883 1.32121,2.2887 h 2.64241 l 1.32121,-2.2887 -1.32121,-2.2883 z m -5.14258,0.4352 v 3.3204 h 1.64785 v -3.3204 z m 10.7979,1.3476 -2.5131,4.3521 2.5131,4.3522 h 5.02508 l 2.51311,-4.3522 -2.51311,-4.3521 z" /></g></g></svg>
