<?xml version="1.0" encoding="UTF-8" standalone="no"?>
<!-- Created with Inkscape (http://www.inkscape.org/) -->

<svg
   width="74.414322mm"
   height="65.181557mm"
   viewBox="0 0 74.414322 65.181557"
   version="1.1"
   id="svg1"
   xml:space="preserve"
   inkscape:version="1.3.2 (091e20e, 2023-11-25, custom)"
   sodipodi:docname="Nigeriadraw.svg"
   xmlns:inkscape="http://www.inkscape.org/namespaces/inkscape"
   xmlns:sodipodi="http://sodipodi.sourceforge.net/DTD/sodipodi-0.dtd"
   xmlns="http://www.w3.org/2000/svg"
   xmlns:svg="http://www.w3.org/2000/svg"><sodipodi:namedview
     id="namedview1"
     pagecolor="#ffffff"
     bordercolor="#000000"
     borderopacity="0.25"
     inkscape:showpageshadow="2"
     inkscape:pageopacity="0.0"
     inkscape:pagecheckerboard="0"
     inkscape:deskcolor="#d1d1d1"
     inkscape:document-units="mm"
     inkscape:zoom="0.36569515"
     inkscape:cx="-1345.3829"
     inkscape:cy="17138.592"
     inkscape:window-width="1920"
     inkscape:window-height="1017"
     inkscape:window-x="-8"
     inkscape:window-y="-8"
     inkscape:window-maximized="1"
     inkscape:current-layer="layer1"
     showguides="false" /><defs
     id="defs1"><linearGradient
       id="swatch39"
       inkscape:swatch="solid"><stop
         style="stop-color:#000000;stop-opacity:1;"
         offset="0"
         id="stop39" /></linearGradient></defs><g
     inkscape:label="Layer 1"
     inkscape:groupmode="layer"
     id="layer1"
     transform="translate(399.37061,-5550.347)"><g
       id="g343"><g
         id="g157"
         transform="translate(1.0852619,206.01889)"><path
           id="path156"
           style="color:#000000;fill:#d32727;fill-opacity:1;stroke-linejoin:round;-inkscape-stroke:none"
           d="m -363.24949,5344.328 a 2.7516551,2.7516551 0 0 1 2.3828,1.3751 l 34.45681,59.6796 a 2.7516551,2.7516551 0 0 1 -2.3828,4.1269 h -68.91208 a 2.7516551,2.7516551 0 0 1 -2.3828,-4.1269 l 34.45527,-59.6796 a 2.7516551,2.7516551 0 0 1 2.3828,-1.3751 z" /><path
           sodipodi:nodetypes="cccc"
           inkscape:connector-curvature="0"
           id="path157"
           d="m -334.87705,5403.2492 -28.37177,-49.1413 -28.37177,49.1413 z"
           style="fill:#ffc500;fill-opacity:1;stroke:none;stroke-width:11.9311;stroke-linecap:butt;stroke-linejoin:round;stroke-miterlimit:4;stroke-dasharray:none;stroke-dashoffset:0;stroke-opacity:1" /></g><path
         id="path131-8"
         style="fill:#000000;fill-opacity:1;stroke:none;stroke-width:4.53371;stroke-linejoin:round;stroke-dasharray:none;stroke-opacity:1"
         d="m -362.96919,5571.0027 c -1.19697,-3e-4 -2.16733,0.9701 -2.16718,2.1672 10e-5,1.1968 0.97039,2.1669 2.16718,2.1667 1.19662,-10e-5 2.16666,-0.9701 2.16676,-2.1667 1.5e-4,-1.1968 -0.96996,-2.1671 -2.16676,-2.1672 z m 1.48024,6.0243 c -0.27616,-0.012 -0.57175,0.026 -0.88935,0.1104 -1.69389,0.4541 -2.25122,1.651 -2.25122,1.651 l -2.55182,5.8536 -1.95106,1.1256 -2.08227,2.7392 5.62806,-1.6135 2.12001,-2.0446 1.50125,4.4651 -4.65298,8.7049 -2.28895,8.6677 3.22013,-1.0826 2.18325,-6.647 3.677,-5.1405 4.66405,13.0561 2.20282,-1.3489 -4.91539,-23.414 3.01457,0.9756 0.65086,7.7265 1.81426,-1.0476 v -7.8652 c 0,0 -5.49891,-3.175 -6.36173,-3.673 -0.70107,-0.4048 -1.53482,-1.1697 -2.73149,-1.1989 z"
         sodipodi:nodetypes="ssssscccccccccccccccccccccscc" /></g></g></svg>
