<?xml version="1.0" encoding="UTF-8" standalone="no"?>
<!-- Created with Inkscape (http://www.inkscape.org/) -->

<svg
   width="60.751846mm"
   height="60.752365mm"
   viewBox="0 0 60.751846 60.752365"
   version="1.1"
   id="svg1"
   xml:space="preserve"
   inkscape:version="1.3.2 (091e20e, 2023-11-25, custom)"
   sodipodi:docname="Nigeriadraw.svg"
   xmlns:inkscape="http://www.inkscape.org/namespaces/inkscape"
   xmlns:sodipodi="http://sodipodi.sourceforge.net/DTD/sodipodi-0.dtd"
   xmlns="http://www.w3.org/2000/svg"
   xmlns:svg="http://www.w3.org/2000/svg"><sodipodi:namedview
     id="namedview1"
     pagecolor="#ffffff"
     bordercolor="#000000"
     borderopacity="0.25"
     inkscape:showpageshadow="2"
     inkscape:pageopacity="0.0"
     inkscape:pagecheckerboard="0"
     inkscape:deskcolor="#d1d1d1"
     inkscape:document-units="mm"
     inkscape:zoom="0.36569515"
     inkscape:cx="-1345.3829"
     inkscape:cy="17138.592"
     inkscape:window-width="1920"
     inkscape:window-height="1017"
     inkscape:window-x="-8"
     inkscape:window-y="-8"
     inkscape:window-maximized="1"
     inkscape:current-layer="layer1"
     showguides="false" /><defs
     id="defs1"><linearGradient
       id="swatch39"
       inkscape:swatch="solid"><stop
         style="stop-color:#000000;stop-opacity:1;"
         offset="0"
         id="stop39" /></linearGradient></defs><g
     inkscape:label="Layer 1"
     inkscape:groupmode="layer"
     id="layer1"
     transform="translate(519.00947,262.08678)"><g
       id="g285"
       inkscape:export-filename="..\..\..\NG road sign B02a.svg"
       inkscape:export-xdpi="96"
       inkscape:export-ydpi="96"><path
         id="rect1"
         style="fill:#ffc500;fill-opacity:1;stroke-width:0.259663"
         d="m -501.2157,-262.08678 -17.79374,17.79426 v 25.16435 l 17.79374,17.79375 h 25.16436 l 17.79374,-17.79375 v -25.16435 l -17.79374,-17.79426 z" /><path
         id="path2"
         style="fill:#d32727;fill-opacity:1;stroke-width:0.22577"
         d="m -499.57339,-258.1219 -15.4712,15.47165 v 21.87975 l 15.4712,15.4712 h 21.87976 l 15.47119,-15.4712 v -21.87975 l -15.47119,-15.47165 z" /><path
         d="m -502.74957,-227.42901 q 0,2.30884 -1.43206,4.09162 -1.43207,1.75354 -3.94549,1.75354 -2.30883,0 -3.91625,-1.78277 -1.5782,-1.812 -1.5782,-4.32542 h 2.68878 q 0,1.54897 0.75987,2.45497 0.78909,0.906 1.98735,0.906 1.11058,0 1.92891,-0.87677 0.81832,-0.906 0.78909,-2.10426 -0.0292,-0.96445 -0.73064,-2.01658 -0.6722,-1.08136 -2.51342,-2.25039 -2.10426,-1.34439 -3.06871,-2.65955 -0.96445,-1.34438 -0.96445,-2.51342 -0.0292,-2.10425 1.34438,-3.56554 1.37362,-1.49052 3.5071,-1.51974 2.25039,0 3.68245,1.49051 1.46129,1.46129 1.46129,3.56555 h -2.86413 q 0.0292,-1.13981 -0.73064,-1.78278 -0.73065,-0.64296 -1.54897,-0.58451 -0.96445,0.0584 -1.49052,0.73064 -0.52606,0.64297 -0.49683,1.5782 0.0292,0.61374 0.52606,1.19825 0.49684,0.58452 2.16271,1.75355 2.33806,1.5782 3.36097,3.09794 1.05213,1.51974 1.08135,3.36096 z m 12.12871,-11.45651 h -3.56555 v 16.95096 h -2.8349 v -16.95096 h -3.56555 v -2.63032 h 9.966 z m 7.71563,17.30167 q -3.01026,0 -4.4131,-2.51341 -1.40284,-2.54265 -1.40284,-7.62794 0,-5.02684 1.40284,-7.56948 1.40284,-2.54264 4.4131,-2.54264 3.01025,0 4.41309,2.54264 1.40284,2.54264 1.40284,7.56948 0,5.08529 -1.40284,7.62794 -1.40284,2.51341 -4.41309,2.51341 z m 0,-2.74722 q 1.60742,0.0292 2.30883,-1.78277 0.70142,-1.812 0.70142,-5.66981 0,-3.79935 -0.70142,-5.5529 -0.70141,-1.75355 -2.30883,-1.75355 -1.60742,0 -2.30884,1.75355 -0.70142,1.75355 -0.70142,5.5529 0,3.85781 0.70142,5.66981 0.70142,1.812 2.30884,1.78277 z m 16.51258,-12.04103 q 0,-1.11058 -0.70142,-1.75355 -0.70142,-0.64297 -1.84123,-0.64297 h -2.89335 v 4.82226 h 2.89335 q 1.05213,0 1.78278,-0.70142 0.75987,-0.70142 0.75987,-1.72432 z m -2.74723,5.23142 h -2.68877 v 9.20612 h -2.80568 v -19.58128 h 5.84516 q 2.30884,0 3.71168,1.43206 1.43206,1.43207 1.43206,3.79936 -0.0292,2.10425 -1.40284,3.624 -1.34438,1.51974 -4.09161,1.51974 z"
         id="text2"
         style="font-size:29.2258px;font-family:'Highway Gothic Narrow';-inkscape-font-specification:'Highway Gothic Narrow, Normal';fill:#ffc500;stroke-width:2.43549"
         aria-label="STOP" /></g></g></svg>
