<?xml version="1.0" encoding="UTF-8" standalone="no"?>
<!-- Created with Inkscape (http://www.inkscape.org/) -->

<svg
   width="74.414322mm"
   height="65.181557mm"
   viewBox="0 0 74.414322 65.181557"
   version="1.1"
   id="svg1"
   xml:space="preserve"
   inkscape:version="1.3.2 (091e20e, 2023-11-25, custom)"
   sodipodi:docname="Nigeriadraw.svg"
   xmlns:inkscape="http://www.inkscape.org/namespaces/inkscape"
   xmlns:sodipodi="http://sodipodi.sourceforge.net/DTD/sodipodi-0.dtd"
   xmlns="http://www.w3.org/2000/svg"
   xmlns:svg="http://www.w3.org/2000/svg"><sodipodi:namedview
     id="namedview1"
     pagecolor="#ffffff"
     bordercolor="#000000"
     borderopacity="0.25"
     inkscape:showpageshadow="2"
     inkscape:pageopacity="0.0"
     inkscape:pagecheckerboard="0"
     inkscape:deskcolor="#d1d1d1"
     inkscape:document-units="mm"
     inkscape:zoom="0.36569515"
     inkscape:cx="-1345.3829"
     inkscape:cy="17138.592"
     inkscape:window-width="1920"
     inkscape:window-height="1017"
     inkscape:window-x="-8"
     inkscape:window-y="-8"
     inkscape:window-maximized="1"
     inkscape:current-layer="layer1"
     showguides="false" /><defs
     id="defs1"><linearGradient
       id="swatch39"
       inkscape:swatch="solid"><stop
         style="stop-color:#000000;stop-opacity:1;"
         offset="0"
         id="stop39" /></linearGradient></defs><g
     inkscape:label="Layer 1"
     inkscape:groupmode="layer"
     id="layer1"
     transform="translate(436.99302,-5244.8456)"><g
       id="g340"><g
         id="g140"
         transform="matrix(-1,0,0,1,-834.9017,888.77941)"><path
           id="path139"
           style="color:#000000;fill:#d32727;fill-opacity:1;stroke-linejoin:round;-inkscape-stroke:none"
           d="m -435.11506,4356.0663 a 2.7516551,2.7516551 0 0 0 -2.3828,1.3751 l -34.45681,59.6795 a 2.7516551,2.7516551 0 0 0 2.3828,4.1269 h 68.91208 a 2.7516551,2.7516551 0 0 0 2.3828,-4.1269 l -34.45527,-59.6795 a 2.7516551,2.7516551 0 0 0 -2.3828,-1.3751 z" /><path
           sodipodi:nodetypes="cccc"
           inkscape:connector-curvature="0"
           id="path140"
           d="m -463.4875,4414.9875 28.37177,-49.1413 28.37177,49.1413 z"
           style="fill:#ffc500;fill-opacity:1;stroke:none;stroke-width:11.9311;stroke-linecap:butt;stroke-linejoin:round;stroke-miterlimit:4;stroke-dasharray:none;stroke-dashoffset:0;stroke-opacity:1" /></g><path
         id="path5807"
         style="fill:#000000;fill-opacity:1;fill-rule:nonzero;stroke:none;stroke-width:0.165199"
         d="m -402.71075,5269.3172 c -0.584,-0.028 -1.59394,0.1654 -2.03436,1.4288 l -2.48974,6.665 -0.5379,3.0505 14.39803,2.5387 0.53789,-3.0505 -0.06,-7.1145 c 0.0208,-1.5289 -1.13547,-1.9994 -1.6391,-2.0925 l -7.95356,-1.4024 c -0.0631,-0.011 -0.13786,-0.019 -0.22129,-0.023 z m -0.23846,1.3313 c 0.14869,0 0.32951,0.03 0.55929,0.068 l 7.28986,1.2852 c 0.7334,0.1349 0.97433,0.1598 0.90822,1.1599 l -0.1364,3.8301 -10.49349,-1.8503 1.18172,-3.6459 c 0.19247,-0.6617 0.36369,-0.8404 0.6908,-0.8472 z m -5.07732,11.2527 c -0.009,0.6292 0.46721,0.8229 0.67447,0.8612 l 0.1258,0.022 -0.29034,1.6472 2.24505,0.3959 0.2905,-1.6473 8.0531,1.42 -0.29051,1.6472 2.24504,0.3959 0.29051,-1.6471 0.12597,0.022 c 0.20785,0.035 0.72112,0.016 0.92826,-0.5785 z m 0.67161,4.6601 c -1.52255,0.5092 -7.11455,2.8789 -7.11455,4.7448 0,0.6347 0.42198,1.2939 1.07039,1.4299 3.13498,1.2339 6.15583,1.5091 9.48978,1.2339 1.19303,0.9942 3.76711,1.8795 3.76711,3.2823 0,1.0241 -2.65316,3.0107 -3.44293,3.4793 h 3.11943 c 0.79815,-0.7792 2.98822,-2.6976 2.98822,-3.9997 0,-1.0976 -0.24782,-1.1656 -1.14668,-1.7212 -0.61572,-0.3815 -1.21751,-0.7764 -1.77603,-1.234 h -9.8e-4 c 0.57201,-0.021 1.14682,-0.035 1.72147,-0.035 1.54175,0 3.0616,0.1205 4.59231,0.2941 1.87127,0.2125 4.27924,0.3544 4.27924,2.8275 0,0.4412 -0.19815,0.8823 -0.39222,1.2664 -0.59121,0.9044 -1.24488,1.8473 -1.98031,2.6019 h 2.98806 c 0.6047,-0.7465 1.16029,-1.6425 1.42995,-2.5686 0.23964,-0.5692 0.38969,-1.1305 0.38969,-1.7542 0,-4.1213 -6.2214,-4.2899 -8.9997,-4.2899 h -1.65596 c -1.09784,0 -2.22547,0.09 -3.31494,0.196 0.0327,-0.2316 0.17969,-0.4604 0.2804,-0.6617 0.77363,-1.5473 2.20379,-2.7731 3.87894,-3.2389 -0.0572,-0.1307 -0.29429,-0.4003 -0.38969,-0.4874 -0.092,-0.082 -0.22331,-0.1553 -0.32689,-0.2262 -2.79994,0.5257 -4.49951,1.9694 -6.10663,4.222 -0.0266,0.038 -0.0469,0.09 -0.0653,0.1307 -1.983,0.1246 -3.98501,-0.082 -5.91347,-0.5529 -0.35403,0.021 -0.78175,-0.7191 -0.78175,-1.0379 0,-0.4085 0.20438,-0.8197 0.52021,-1.073 1.28844,-0.8773 2.68018,-1.6535 4.06115,-2.3726 -0.29947,-0.2022 -0.81703,-0.3867 -1.16841,-0.4547 z"
         sodipodi:nodetypes="sccccccccsssccccccssccccccccccscccsccsccssscsssccccssscscccsccsccsc" /></g></g></svg>
