<?xml version="1.0" encoding="UTF-8" standalone="no"?>
<!-- Created with Inkscape (http://www.inkscape.org/) -->

<svg
   width="74.414284mm"
   height="65.181557mm"
   viewBox="0 0 74.414284 65.181557"
   version="1.1"
   id="svg1"
   xml:space="preserve"
   inkscape:version="1.3.2 (091e20e, 2023-11-25, custom)"
   sodipodi:docname="Nigeriadraw.svg"
   xmlns:inkscape="http://www.inkscape.org/namespaces/inkscape"
   xmlns:sodipodi="http://sodipodi.sourceforge.net/DTD/sodipodi-0.dtd"
   xmlns="http://www.w3.org/2000/svg"
   xmlns:svg="http://www.w3.org/2000/svg"><sodipodi:namedview
     id="namedview1"
     pagecolor="#ffffff"
     bordercolor="#000000"
     borderopacity="0.25"
     inkscape:showpageshadow="2"
     inkscape:pageopacity="0.0"
     inkscape:pagecheckerboard="0"
     inkscape:deskcolor="#d1d1d1"
     inkscape:document-units="mm"
     inkscape:zoom="0.36569515"
     inkscape:cx="-1345.3829"
     inkscape:cy="17138.592"
     inkscape:window-width="1920"
     inkscape:window-height="1017"
     inkscape:window-x="-8"
     inkscape:window-y="-8"
     inkscape:window-maximized="1"
     inkscape:current-layer="layer1"
     showguides="false" /><defs
     id="defs1"><linearGradient
       id="swatch39"
       inkscape:swatch="solid"><stop
         style="stop-color:#000000;stop-opacity:1;"
         offset="0"
         id="stop39" /></linearGradient></defs><g
     inkscape:label="Layer 1"
     inkscape:groupmode="layer"
     id="layer1"
     transform="translate(434.24128,-4996.2479)"><g
       id="g337"><g
         id="g89"
         transform="matrix(-1,0,0,1,-832.14998,640.18172)"><path
           id="path88"
           style="color:#000000;fill:#d32727;fill-opacity:1;stroke-linejoin:round;-inkscape-stroke:none"
           d="m -435.11506,4356.0663 a 2.7516551,2.7516551 0 0 0 -2.3828,1.3751 l -34.45681,59.6795 a 2.7516551,2.7516551 0 0 0 2.3828,4.1269 h 68.91208 a 2.7516551,2.7516551 0 0 0 2.3828,-4.1269 l -34.45527,-59.6795 a 2.7516551,2.7516551 0 0 0 -2.3828,-1.3751 z" /><path
           sodipodi:nodetypes="cccc"
           inkscape:connector-curvature="0"
           id="path89"
           d="m -463.4875,4414.9875 28.37177,-49.1413 28.37177,49.1413 z"
           style="fill:#ffc500;fill-opacity:1;stroke:none;stroke-width:11.9311;stroke-linecap:butt;stroke-linejoin:round;stroke-miterlimit:4;stroke-dasharray:none;stroke-dashoffset:0;stroke-opacity:1" /></g><path
         id="path91"
         style="color:#000000;fill:#000000;-inkscape-stroke:none"
         d="m -406.96197,5028.5763 -2.54093,4.3046 5.48649,3.2401 v 8.4222 l -5.48649,3.2402 2.54093,4.3046 7.94525,-4.6917 v -14.1309 z m 19.85564,0 -7.94371,4.6891 v 14.1309 l 7.94371,4.6917 2.54093,-4.3046 -5.48442,-3.2402 v -8.4222 l 5.48442,-3.2401 z" /></g></g></svg>
