<?xml version="1.0" encoding="UTF-8" standalone="no"?>
<!-- Created with Inkscape (http://www.inkscape.org/) -->

<svg
   width="74.414322mm"
   height="65.181557mm"
   viewBox="0 0 74.414322 65.181557"
   version="1.1"
   id="svg1"
   xml:space="preserve"
   inkscape:version="1.3.2 (091e20e, 2023-11-25, custom)"
   sodipodi:docname="Nigeriadraw.svg"
   xmlns:inkscape="http://www.inkscape.org/namespaces/inkscape"
   xmlns:sodipodi="http://sodipodi.sourceforge.net/DTD/sodipodi-0.dtd"
   xmlns="http://www.w3.org/2000/svg"
   xmlns:svg="http://www.w3.org/2000/svg"><sodipodi:namedview
     id="namedview1"
     pagecolor="#ffffff"
     bordercolor="#000000"
     borderopacity="0.25"
     inkscape:showpageshadow="2"
     inkscape:pageopacity="0.0"
     inkscape:pagecheckerboard="0"
     inkscape:deskcolor="#d1d1d1"
     inkscape:document-units="mm"
     inkscape:zoom="0.36569515"
     inkscape:cx="-1345.3829"
     inkscape:cy="17138.592"
     inkscape:window-width="1920"
     inkscape:window-height="1017"
     inkscape:window-x="-8"
     inkscape:window-y="-8"
     inkscape:window-maximized="1"
     inkscape:current-layer="layer1"
     showguides="false" /><defs
     id="defs1"><linearGradient
       id="swatch39"
       inkscape:swatch="solid"><stop
         style="stop-color:#000000;stop-opacity:1;"
         offset="0"
         id="stop39" /></linearGradient></defs><g
     inkscape:label="Layer 1"
     inkscape:groupmode="layer"
     id="layer1"
     transform="translate(368.73502,-6539.9905)"><g
       id="g354"><g
         id="g277"
         transform="translate(31.720864,1195.6625)"><path
           id="path276"
           style="color:#000000;fill:#d32727;fill-opacity:1;stroke-linejoin:round;-inkscape-stroke:none"
           d="m -363.24949,5344.328 a 2.7516551,2.7516551 0 0 1 2.3828,1.3751 l 34.45681,59.6796 a 2.7516551,2.7516551 0 0 1 -2.3828,4.1269 h -68.91208 a 2.7516551,2.7516551 0 0 1 -2.3828,-4.1269 l 34.45527,-59.6796 a 2.7516551,2.7516551 0 0 1 2.3828,-1.3751 z" /><path
           sodipodi:nodetypes="cccc"
           inkscape:connector-curvature="0"
           id="path277"
           d="m -334.87705,5403.2492 -28.37177,-49.1413 -28.37177,49.1413 z"
           style="fill:#ffc500;fill-opacity:1;stroke:none;stroke-width:11.9311;stroke-linecap:butt;stroke-linejoin:round;stroke-miterlimit:4;stroke-dasharray:none;stroke-dashoffset:0;stroke-opacity:1" /></g><path
         id="path126-2"
         style="color:#000000;fill:#000000;stroke-width:0.999997;stroke-linejoin:round;-inkscape-stroke:none"
         d="m -329.07406,6566.3888 c -0.10331,-0.01 -0.21188,0.019 -0.31257,0.089 l -4.83262,3.3117 4.83262,3.3261 c 0.40277,0.2806 0.93069,-0.1405 0.75012,-0.5896 l -0.30801,-0.993 c 1.88411,0.4736 4.41432,2.0112 5.34479,2.9416 l 2.10883,-2.1084 c -1.57607,-1.5762 -4.46745,-3.5767 -7.57506,-3.9094 l 0.42945,-1.3756 c 0.13542,-0.3471 -0.12762,-0.6707 -0.43755,-0.6924 z m -10.39882,5.8098 c -1.57622,1.5761 -3.57658,4.4674 -3.90934,7.5751 l -1.37561,-0.4298 c -0.46292,-0.1806 -0.88404,0.3473 -0.60334,0.7501 l 3.31163,4.833 3.32606,-4.833 c 0.28058,-0.4028 -0.1405,-0.9307 -0.58959,-0.7501 l -0.993,0.3083 c 0.47362,-1.8841 2.0112,-4.4143 2.94168,-5.3448 z m 20.26753,5.6675 -3.3257,4.8327 c -0.28057,0.4028 0.14016,0.9306 0.58924,0.7501 l 0.99336,-0.308 c -0.47362,1.8841 -2.01157,4.4144 -2.94203,5.3448 l 2.10884,2.1088 c 1.57621,-1.576 3.57658,-4.4675 3.90932,-7.575 l 1.37563,0.4294 c 0.46292,0.1805 0.88404,-0.3473 0.60332,-0.7501 z m -19.5586,10.5753 -2.10849,2.1088 c 1.57607,1.5762 4.46743,3.5765 7.57507,3.9093 l -0.4298,1.3757 c -0.18056,0.4629 0.34733,0.884 0.75012,0.6033 l 4.83298,-3.3116 -4.83298,-3.3262 c -0.40279,-0.2805 -0.93068,0.1402 -0.75012,0.5893 l 0.30836,0.9934 c -1.8841,-0.4736 -4.4147,-2.0115 -5.34514,-2.942 z" /></g></g></svg>
