<?xml version="1.0" encoding="UTF-8" standalone="no"?>
<!-- Created with Inkscape (http://www.inkscape.org/) -->

<svg
   width="60.751846mm"
   height="60.752365mm"
   viewBox="0 0 60.751846 60.752365"
   version="1.1"
   id="svg1"
   xml:space="preserve"
   inkscape:version="1.3.2 (091e20e, 2023-11-25, custom)"
   sodipodi:docname="Nigeriadraw.svg"
   xmlns:inkscape="http://www.inkscape.org/namespaces/inkscape"
   xmlns:sodipodi="http://sodipodi.sourceforge.net/DTD/sodipodi-0.dtd"
   xmlns="http://www.w3.org/2000/svg"
   xmlns:svg="http://www.w3.org/2000/svg"><sodipodi:namedview
     id="namedview1"
     pagecolor="#ffffff"
     bordercolor="#000000"
     borderopacity="0.25"
     inkscape:showpageshadow="2"
     inkscape:pageopacity="0.0"
     inkscape:pagecheckerboard="0"
     inkscape:deskcolor="#d1d1d1"
     inkscape:document-units="mm"
     inkscape:zoom="0.36569515"
     inkscape:cx="-1345.3829"
     inkscape:cy="17138.592"
     inkscape:window-width="1920"
     inkscape:window-height="1017"
     inkscape:window-x="-8"
     inkscape:window-y="-8"
     inkscape:window-maximized="1"
     inkscape:current-layer="layer1"
     showguides="false" /><defs
     id="defs1"><linearGradient
       id="swatch39"
       inkscape:swatch="solid"><stop
         style="stop-color:#000000;stop-opacity:1;"
         offset="0"
         id="stop39" /></linearGradient></defs><g
     inkscape:label="Layer 1"
     inkscape:groupmode="layer"
     id="layer1"
     transform="translate(587.20088,-1934.76)"><g
       id="g305"><circle
         style="fill:#0046a7;fill-opacity:1;stroke-width:0.206752"
         id="circle70"
         cx="556.82489"
         cy="1965.1361"
         r="26.572258"
         transform="scale(-1,1)" /><path
         id="path70"
         style="fill:#d32727;fill-opacity:1;stroke-width:0.236348"
         d="m -556.82493,1934.7599 a 30.375999,30.375999 0 0 0 -30.37592,30.3765 30.375999,30.375999 0 0 0 30.37592,30.3759 30.375999,30.375999 0 0 0 30.37593,-30.3759 30.375999,30.375999 0 0 0 -30.37593,-30.3765 z m 0,6.8735 a 23.502674,23.502674 0 0 1 12.83281,3.8871 l -12.83281,12.8328 -12.83281,-12.8328 a 23.502674,23.502674 0 0 1 2.93109,-1.6438 23.502674,23.502674 0 0 1 0.1819,-0.075 23.502674,23.502674 0 0 1 2.97967,-1.143 23.502674,23.502674 0 0 1 0.44235,-0.106 23.502674,23.502674 0 0 1 2.88044,-0.6501 23.502674,23.502674 0 0 1 3.41736,-0.2687 z m 19.61586,10.6697 a 23.502674,23.502674 0 0 1 3.88607,12.8229 23.502674,23.502674 0 0 1 5.1e-4,0.01 23.502674,23.502674 0 0 1 -0.03,0.386 23.502674,23.502674 0 0 1 -0.23823,3.0277 23.502674,23.502674 0 0 1 -0.65835,2.9197 23.502674,23.502674 0 0 1 -0.0972,0.4031 23.502674,23.502674 0 0 1 -1.15083,3.0004 23.502674,23.502674 0 0 1 -0.0667,0.1612 23.502674,23.502674 0 0 1 -1.6459,2.9342 l -12.83229,-12.8323 z m -39.2312,5e-4 12.83229,12.8328 -12.83229,12.8323 a 23.502674,23.502674 0 0 1 -1.64744,-2.9378 23.502674,23.502674 0 0 1 -0.0584,-0.1411 23.502674,23.502674 0 0 1 -1.15755,-3.0169 23.502674,23.502674 0 0 1 -0.0971,-0.4031 23.502674,23.502674 0 0 1 -0.65836,-2.9197 23.502674,23.502674 0 0 1 -0.23823,-3.0277 23.502674,23.502674 0 0 1 -0.03,-0.386 23.502674,23.502674 0 0 1 0.26924,-3.421 23.502674,23.502674 0 0 1 0.632,-2.804 23.502674,23.502674 0 0 1 0.12557,-0.5234 23.502674,23.502674 0 0 1 1.1312,-2.9472 23.502674,23.502674 0 0 1 0.0873,-0.2113 23.502674,23.502674 0 0 1 1.63401,-2.914 23.502674,23.502674 0 0 1 0.008,-0.012 z m 19.61534,19.6158 12.83229,12.8323 a 23.502674,23.502674 0 0 1 -2.93108,1.6438 23.502674,23.502674 0 0 1 -0.1819,0.075 23.502674,23.502674 0 0 1 -2.97553,1.142 23.502674,23.502674 0 0 1 -0.47698,0.1148 23.502674,23.502674 0 0 1 -2.84943,0.6423 23.502674,23.502674 0 0 1 -3.41737,0.2687 23.502674,23.502674 0 0 1 -3.41736,-0.2687 23.502674,23.502674 0 0 1 -2.84944,-0.6423 23.502674,23.502674 0 0 1 -0.47697,-0.1148 23.502674,23.502674 0 0 1 -2.97553,-1.142 23.502674,23.502674 0 0 1 -0.1819,-0.075 23.502674,23.502674 0 0 1 -2.93109,-1.6438 z" /></g></g></svg>
