<?xml version="1.0" encoding="UTF-8" standalone="no"?>
<!-- Created with Inkscape (http://www.inkscape.org/) -->

<svg
   width="60.751877mm"
   height="60.75243mm"
   viewBox="0 0 60.751877 60.75243"
   version="1.1"
   id="svg1"
   xml:space="preserve"
   inkscape:version="1.3.2 (091e20e, 2023-11-25, custom)"
   sodipodi:docname="Nigeriadraw.svg"
   xmlns:inkscape="http://www.inkscape.org/namespaces/inkscape"
   xmlns:sodipodi="http://sodipodi.sourceforge.net/DTD/sodipodi-0.dtd"
   xmlns="http://www.w3.org/2000/svg"
   xmlns:svg="http://www.w3.org/2000/svg"><sodipodi:namedview
     id="namedview1"
     pagecolor="#ffffff"
     bordercolor="#000000"
     borderopacity="0.25"
     inkscape:showpageshadow="2"
     inkscape:pageopacity="0.0"
     inkscape:pagecheckerboard="0"
     inkscape:deskcolor="#d1d1d1"
     inkscape:document-units="mm"
     inkscape:zoom="0.36569515"
     inkscape:cx="-1345.3829"
     inkscape:cy="17138.592"
     inkscape:window-width="1920"
     inkscape:window-height="1017"
     inkscape:window-x="-8"
     inkscape:window-y="-8"
     inkscape:window-maximized="1"
     inkscape:current-layer="layer1"
     showguides="false" /><defs
     id="defs1"><linearGradient
       id="swatch39"
       inkscape:swatch="solid"><stop
         style="stop-color:#000000;stop-opacity:1;"
         offset="0"
         id="stop39" /></linearGradient></defs><g
     inkscape:label="Layer 1"
     inkscape:groupmode="layer"
     id="layer1"
     transform="translate(544.16804,-1047.0311)"><g
       id="g295"><circle
         style="fill:#ffc500;fill-opacity:1;stroke-width:0.206752"
         id="circle49"
         cx="513.79218"
         cy="1077.4072"
         r="26.572258"
         transform="scale(-1,1)" /><path
         id="path40-9"
         style="stroke-width:0.0639252"
         d="m -513.26583,1055.2957 c -2.48462,0 -4.96925,0.6227 -7.21093,1.8681 -4.48333,2.4909 -7.35352,7.2051 -7.35355,12.3398 v 13.1078 l -3.20084,-1 c -1.3982,-0.5454 -2.66991,1.0486 -1.82211,2.265 l 10.00145,14.5965 10.04435,-14.5965 c 0.8474,-1.2164 -0.42395,-2.8104 -1.78025,-2.265 l -3.34192,1.0366 v -13.1444 c 10e-6,-1.4757 0.79414,-2.8712 2.25981,-3.6855 1.46568,-0.8143 3.34074,-0.8143 4.80643,0 1.46568,0.8143 2.25981,2.2098 2.25981,3.6855 v 25.5292 h 9.90069 v -25.5292 c -3e-5,-5.1347 -2.86867,-9.8489 -7.35201,-12.3398 -2.24168,-1.2454 -4.7263,-1.8681 -7.21093,-1.8681 z" /><path
         id="path51"
         style="fill:#d32727;fill-opacity:1;stroke-width:0.236348"
         d="m -513.79213,1047.0311 a 30.375999,30.375999 0 0 0 -30.37593,30.3764 30.375999,30.375999 0 0 0 30.37593,30.376 30.375999,30.375999 0 0 0 30.37592,-30.376 30.375999,30.375999 0 0 0 -30.37592,-30.3764 z m 0,6.8735 a 23.502674,23.502674 0 0 1 23.50244,23.5029 23.502674,23.502674 0 0 1 -3.8871,12.8323 l -32.44815,-32.4481 a 23.502674,23.502674 0 0 1 12.83281,-3.8871 z m -19.61586,10.6696 32.44815,32.4487 a 23.502674,23.502674 0 0 1 -12.83229,3.8871 23.502674,23.502674 0 0 1 -23.50296,-23.5025 23.502674,23.502674 0 0 1 3.8871,-12.8333 z" /></g></g></svg>
